# xmcd CD database file
#
# Track frame offsets:
#	150
#	22945
#	40175
#	61160
#	80530
#	98087
#	117967
#	139662
#	162427
#	180147
#
# Disc length: 2681 seconds
#
# Revision: 0
# Processed by: cddbd v1.5.2PL0 Copyright (c) Steve Scherf et al.
# Submitted via: CDex 1.51
#
DISCID=700a770a
DTITLE=BROERY MARANTIKA - Before You Go
DYEAR=1997
DGENRE=Country
TTITLE0=Before You Go
TTITLE1=Sweet Memories
TTITLE2=I´Ve Got Dreams To Remember
TTITLE3=Loving You Was Easier
TTITLE4=I´M Coming Home
TTITLE5=He´Ll Have To Go
TTITLE6=Let Me Try Again
TTITLE7=The First Time Ever I Saw Your Face
TTITLE8=Since I Met You Baby
TTITLE9=The End
EXTD=YEAR: 1997
EXTT0=
EXTT1=
EXTT2=
EXTT3=
EXTT4=
EXTT5=
EXTT6=
EXTT7=
EXTT8=
EXTT9=
PLAYORDER=
